<svg width="34" height="34" viewBox="0 0 34 34" fill="none" xmlns="http://www.w3.org/2000/svg">
<g clip-path="url(#clip0_1_5633)">
<path d="M32.6547 9.35665C31.3844 10.0339 30.2296 10.6568 29.0669 11.2669C28.7842 11.4155 28.8346 11.6533 28.8346 11.8834C28.8319 12.96 28.8147 14.0379 28.8412 15.1145C28.8545 15.6043 28.6899 15.9197 28.2333 16.1459C27.4263 16.5452 26.6458 16.9963 25.8454 17.4099C25.1273 17.7808 24.6946 17.5275 24.6853 16.7313C24.6747 15.8486 24.6747 14.9646 24.6866 14.0818C24.6906 13.7484 24.6123 13.6463 24.2778 13.8285C23.2173 14.4062 22.1501 14.9736 21.0802 15.5345C20.8387 15.6612 20.7351 15.8202 20.7365 16.0942C20.7444 20.0361 20.7457 23.9781 20.7351 27.92C20.7338 28.3517 20.8851 28.3233 21.1931 28.1578C24.8897 26.1765 28.589 24.1965 32.2937 22.2294C32.6003 22.0666 32.6627 21.8623 32.6587 21.556C32.6441 20.4355 32.66 19.3162 32.6507 18.1957C32.6467 17.7175 32.7357 17.2936 33.3343 17.3C33.8878 17.3065 33.9887 17.7045 33.986 18.1621C33.9794 19.4972 33.9714 20.8336 33.99 22.1687C33.9967 22.612 33.8228 22.886 33.4272 23.0966C29.1611 25.3662 24.9003 27.6435 20.6435 29.9311C20.2506 30.1417 19.9228 30.1598 19.5326 29.9362C18.8291 29.5317 18.0884 29.1879 17.3902 28.7743C17.0119 28.5495 16.8699 28.6231 16.6588 28.9902C14.8669 32.105 12.1206 33.6546 8.45318 33.612C7.33821 33.599 6.27102 33.316 5.24631 32.8804C4.78838 32.6866 4.4353 32.4268 4.67024 31.9098C4.91447 31.376 5.36312 31.5208 5.80247 31.7004C10.4562 33.5926 15.4045 30.9392 16.2474 26.1042C16.911 22.2966 14.1236 18.4955 10.188 17.8441C6.06529 17.1617 2.16554 19.7673 1.46072 23.6576C1.18728 25.1671 1.35586 26.6147 1.99166 28.0118C2.18943 28.4474 2.28102 28.879 1.7222 29.091C1.21914 29.2836 0.969599 28.954 0.771824 28.5378C-0.747988 25.339 0.0192183 21.3738 2.65002 18.8858C3.50085 18.0819 4.45654 17.4163 5.5808 17.0467C6.11174 16.8722 6.20864 16.5943 6.20333 16.1045C6.17944 13.6489 6.21528 11.1932 6.17811 8.73756C6.16749 8.081 6.41438 7.73334 6.99177 7.42832C11.1105 5.25443 15.216 3.05856 19.3122 0.844603C19.8551 0.551218 20.2825 0.525369 20.8373 0.826508C24.9508 3.05339 29.0749 5.26218 33.2122 7.44512C33.8029 7.7566 34.0219 8.12624 33.998 8.76988C33.9515 10.0171 33.9794 11.2682 33.986 12.518C33.9887 12.9781 33.8745 13.3658 33.321 13.3671C32.7689 13.3684 32.6481 12.9858 32.6521 12.5231C32.66 11.5112 32.6547 10.4992 32.6547 9.35665ZM19.3587 28.353C19.3852 28.1902 19.4051 28.1255 19.4051 28.0622C19.4078 24.0802 19.4025 20.0982 19.4197 16.1161C19.4211 15.7323 19.2127 15.6004 18.9313 15.4492C15.3288 13.5287 11.7291 11.6016 8.12798 9.68105C7.96206 9.59316 7.8134 9.4329 7.52802 9.51045C7.52802 11.7102 7.53333 13.9229 7.52404 16.1355C7.52271 16.5866 7.82004 16.4599 8.0656 16.4444C9.8031 16.3307 11.4517 16.6279 12.994 17.4344C16.473 19.2529 18.2583 22.9816 17.4712 26.8137C17.4168 27.0799 17.3318 27.2958 17.6703 27.4573C18.2211 27.7223 18.7494 28.0273 19.3587 28.353ZM8.29921 8.22446C8.42398 8.3214 8.48371 8.38343 8.55672 8.42221C12.2905 10.4216 16.027 12.4197 19.7622 14.4166C19.9148 14.498 20.0595 14.6053 20.2506 14.5019C21.4599 13.8544 22.6717 13.2081 23.9606 12.5206C20.0409 10.4242 16.2275 8.38731 12.4166 6.34654C12.2335 6.24832 12.0795 6.19662 11.8671 6.31165C10.6991 6.95141 9.5217 7.57307 8.29921 8.22446ZM16.4266 3.88185C16.5314 3.9762 16.5686 4.02531 16.619 4.05245C20.3728 6.06479 24.1278 8.07454 27.8842 10.083C28.0329 10.1618 28.1709 10.2756 28.3714 10.167C29.5248 9.54276 30.6836 8.92755 31.8769 8.29038C31.7733 8.20249 31.7335 8.15596 31.6818 8.12882C27.928 6.11778 24.173 4.10803 20.4166 2.09957C20.2652 2.01814 20.1206 1.90441 19.9254 2.0078C18.7733 2.62688 17.6172 3.24467 16.4266 3.88185ZM13.5117 5.44312C13.8489 5.62923 14.0559 5.74685 14.2656 5.85929C17.669 7.68034 21.0723 9.50011 24.4756 11.3212C25.43 11.8317 25.8467 11.7619 26.6936 10.9283C22.8775 8.88749 19.0693 6.85059 15.2625 4.81112C15.0766 4.7116 14.916 4.66765 14.7143 4.78914C14.3625 4.99981 13.9935 5.18334 13.5117 5.44312ZM26.014 15.8344C26.444 15.6095 26.7719 15.4415 27.0958 15.267C27.2816 15.1662 27.5059 15.1041 27.5033 14.8224C27.4953 13.9552 27.5006 13.0866 27.5006 12.1199C27.0281 12.3693 26.671 12.5748 26.2994 12.748C26.0578 12.8605 26.01 13.0324 26.0127 13.2663C26.0193 14.0818 26.014 14.8974 26.014 15.8344Z" fill="#00A652"/>
<path d="M6.66989 24.1318C6.87828 24.3567 6.96722 24.4485 7.05217 24.5454C7.31764 24.8491 7.3694 25.18 7.06146 25.4656C6.73095 25.7706 6.37655 25.7034 6.06462 25.4023C5.57748 24.9331 5.09167 24.4614 4.61117 23.9858C4.2435 23.6213 4.28996 23.262 4.64701 22.9156C5.10097 22.4749 5.55757 22.0355 6.00622 21.5896C6.32611 21.2729 6.68847 21.1359 7.05084 21.4668C7.41851 21.8028 7.29242 22.1621 6.97518 22.4814C6.91545 22.5408 6.86501 22.6106 6.78935 22.7011C7.00438 22.8924 7.25525 22.8109 7.47692 22.8148C8.6264 22.8368 9.78119 22.7851 10.924 22.8756C12.3616 22.9906 13.4593 24.1486 13.5641 25.5147C13.677 26.9894 12.7916 28.3051 11.3607 28.6463C10.3002 28.8997 9.2038 28.7756 8.12334 28.7355C7.77026 28.7226 7.56718 28.4757 7.5685 28.1255C7.57116 27.7016 7.84592 27.4974 8.24811 27.4844C9.02195 27.4612 9.79712 27.4935 10.5696 27.4573C11.6222 27.4095 12.2992 26.6676 12.2421 25.6789C12.1983 24.915 11.6474 24.2507 10.859 24.1719C9.5197 24.0401 8.1751 24.1254 6.66989 24.1318Z" fill="#00A652"/>
<path d="M3.72428 30.6277C3.6818 31.0219 3.47208 31.2803 3.06193 31.2791C2.65444 31.2778 2.40622 31.027 2.4102 30.6302C2.41419 30.2658 2.65045 30.0306 3.02875 30.0137C3.44288 29.9957 3.65791 30.2425 3.72428 30.6277Z" fill="#00A652"/>
<path d="M33.9842 15.3406C33.9258 15.7348 33.7055 15.9713 33.2807 15.9506C32.8905 15.9312 32.6622 15.6947 32.6701 15.3238C32.6781 14.9167 32.9436 14.6905 33.3603 14.7073C33.7466 14.7241 33.943 14.9671 33.9842 15.3406Z" fill="#00A652"/>
</g>
<defs>
<clipPath id="clip0_1_5633">
<rect width="34" height="33" fill="white" transform="translate(0 0.611816)"/>
</clipPath>
</defs>
</svg>
