<svg width="24" height="26" viewBox="0 0 24 26" fill="none" xmlns="http://www.w3.org/2000/svg">
<path fill-rule="evenodd" clip-rule="evenodd" d="M12 6C8.66879 6 5.96876 8.70004 5.96876 12.0312V17.2816C5.96876 17.3971 5.94875 17.5117 5.90963 17.6204L5.54791 18.625H18.4521L18.0904 17.6204C18.0513 17.5117 18.0313 17.3971 18.0313 17.2816V12.0312C18.0313 8.70004 15.3312 6 12 6ZM3.96876 12.0312C3.96876 7.59547 7.56422 4 12 4C16.4358 4 20.0313 7.59547 20.0313 12.0312V17.1071L20.8159 19.2862C20.9262 19.5926 20.8804 19.9336 20.6932 20.2C20.5059 20.4664 20.2007 20.625 19.875 20.625H4.12501C3.79935 20.625 3.4941 20.4664 3.30685 20.2C3.1196 19.9336 3.07382 19.5926 3.18414 19.2862L3.96876 17.1071V12.0312Z" fill="#828282"/>
<path fill-rule="evenodd" clip-rule="evenodd" d="M8.625 18.625C9.17728 18.625 9.625 19.0727 9.625 19.625C9.625 20.9368 10.6882 22 12 22C13.3118 22 14.375 20.9368 14.375 19.625C14.375 19.0727 14.8227 18.625 15.375 18.625C15.9273 18.625 16.375 19.0727 16.375 19.625C16.375 22.0414 14.4164 24 12 24C9.58359 24 7.625 22.0414 7.625 19.625C7.625 19.0727 8.07272 18.625 8.625 18.625Z" fill="#828282"/>
<circle cx="18" cy="6" r="5" fill="white" stroke="#828282" stroke-width="2"/>
</svg>
