<svg width="24" height="18" viewBox="0 0 24 18" fill="none" xmlns="http://www.w3.org/2000/svg">
<path d="M12.0213 0C15.1758 0 18.3303 0 21.4849 0C23.1002 0 23.9961 0.880541 23.9961 2.4739C23.9961 3.5408 24.0009 4.61236 23.9961 5.67926C23.9961 6.32219 23.7721 6.55048 23.1098 6.60173C21.9137 6.69956 21.0083 7.63135 20.9988 8.7728C20.9893 9.93753 21.8994 10.8926 23.1145 10.9905C23.7721 11.0417 23.9961 11.2746 23.9961 11.9176C24.0009 13.0497 24.0009 14.1772 23.9961 15.3093C23.9866 16.6511 23.0383 17.5968 21.6707 17.5968C15.2235 17.6015 8.77144 17.6015 2.3242 17.5968C0.961368 17.5968 0.00833901 16.6511 0.00357386 15.3046C-0.00119129 14.1725 -0.00119129 13.045 0.00357386 11.9129C0.00357386 11.27 0.227536 11.0417 0.889891 10.9905C2.105 10.8926 3.01038 9.93753 3.00085 8.7728C2.99132 7.62669 2.08118 6.69491 0.885126 6.60173C0.227536 6.55048 0.00357386 6.31753 0.00357386 5.67926C-0.00119129 4.57974 -0.00119129 3.48023 0.00357386 2.38072C0.00357386 0.917812 0.932777 0.00465895 2.4195 0C5.62168 0 8.82386 0 12.0213 0ZM22.4951 5.18541C22.4951 4.28623 22.4951 3.40103 22.4951 2.51583C22.4951 1.67722 22.2759 1.46757 21.4134 1.46757C15.1377 1.46757 8.85722 1.46757 2.58152 1.46757C2.47192 1.46757 2.36232 1.46291 2.25272 1.46757C1.80956 1.50484 1.51413 1.7704 1.50936 2.19902C1.49506 3.19138 1.50459 4.18373 1.50459 5.16211C3.53931 5.94482 4.53046 7.10023 4.49234 8.77745C4.44946 10.7016 3.35824 11.8617 1.50459 12.4254C1.50459 13.3153 1.50459 14.1958 1.50459 15.081C1.50459 15.9196 1.72379 16.1293 2.58628 16.1293C8.86198 16.1293 15.1424 16.1293 21.4181 16.1293C21.5277 16.1293 21.6373 16.1339 21.7469 16.1246C22.1901 16.092 22.4855 15.8264 22.4903 15.3932C22.5046 14.4008 22.4951 13.4084 22.4951 12.4301C20.4032 11.6241 19.4597 10.4314 19.4978 8.67496C19.5359 7.04899 20.5985 5.79573 22.4951 5.18541Z" fill="#828282"/>
<path d="M13.5458 2.66956C14.0366 2.85125 14.4702 3.00966 14.9515 3.1867C13.4505 7.10021 11.9638 10.9765 10.458 14.9086C9.98622 14.7362 9.54306 14.5732 9.05225 14.3961C10.5485 10.478 12.0352 6.60171 13.5458 2.66956Z" fill="#828282"/>
<path d="M8.45181 4.65894C9.71458 4.65894 10.701 5.63266 10.6962 6.87194C10.6867 8.06928 9.67646 9.05232 8.45181 9.05232C7.21764 9.05232 6.1836 8.03201 6.1979 6.82535C6.2122 5.62334 7.21764 4.65894 8.45181 4.65894ZM9.19041 6.83C9.18088 6.42468 8.84732 6.11719 8.42799 6.13116C8.01342 6.14048 7.68463 6.47127 7.69892 6.87194C7.71322 7.25863 8.07537 7.59873 8.46611 7.58475C8.87591 7.57078 9.19994 7.22602 9.19041 6.83Z" fill="#828282"/>
<path d="M16.1907 13.5855C14.9327 13.5808 13.9463 12.5978 13.9606 11.3585C13.9749 10.1612 14.9946 9.17813 16.2145 9.18744C17.4344 9.19676 18.4494 10.1891 18.4541 11.3818C18.4637 12.5978 17.4439 13.5901 16.1907 13.5855ZM16.9531 11.4098C16.9626 11.0277 16.6148 10.669 16.2193 10.6597C15.8142 10.6504 15.4712 10.9765 15.4616 11.3771C15.4521 11.7825 15.7714 12.1039 16.1859 12.1133C16.6005 12.1226 16.9436 11.8058 16.9531 11.4098Z" fill="#828282"/>
</svg>
