<svg width="30" height="26" viewBox="0 0 30 26" fill="none" xmlns="http://www.w3.org/2000/svg">
<path d="M8.36051 22.7558C8.64321 22.7558 8.87238 22.5266 8.87238 22.2439C8.87238 21.9612 8.64321 21.7321 8.36051 21.7321C8.07781 21.7321 7.84863 21.9612 7.84863 22.2439C7.84863 22.5266 8.07781 22.7558 8.36051 22.7558Z" fill="#828282" stroke="#828282" stroke-width="1.456" stroke-miterlimit="10" stroke-linecap="round" stroke-linejoin="round"/>
<path d="M15.5268 22.7558C15.8095 22.7558 16.0386 22.5266 16.0386 22.2439C16.0386 21.9612 15.8095 21.7321 15.5268 21.7321C15.2441 21.7321 15.0149 21.9612 15.0149 22.2439C15.0149 22.5266 15.2441 22.7558 15.5268 22.7558Z" fill="#828282" stroke="#828282" stroke-width="1.456" stroke-miterlimit="10" stroke-linecap="round" stroke-linejoin="round"/>
<path d="M2.72998 6.37585H4.77748L6.82498 18.6609H17.0625L19.11 9.44711H5.80123" stroke="#828282" stroke-width="1.456" stroke-linecap="round" stroke-linejoin="round"/>
<circle cx="21.8401" cy="8.01394" r="6.552" fill="white" stroke="#828282" stroke-width="1.456"/>
<path d="M20.9618 7.98392C20.9618 8.21725 20.9618 8.41058 20.9618 8.56392C20.9685 8.71058 20.9918 8.92058 21.0318 9.19392C21.0718 9.46725 21.1285 9.68725 21.2018 9.85392C21.2751 10.0139 21.3885 10.1606 21.5418 10.2939C21.7018 10.4206 21.8885 10.4839 22.1018 10.4839C22.3218 10.4839 22.5085 10.4206 22.6618 10.2939C22.8218 10.1606 22.9385 10.0139 23.0118 9.85392C23.0851 9.68725 23.1418 9.46725 23.1818 9.19392C23.2218 8.92058 23.2451 8.71058 23.2518 8.56392C23.2585 8.41058 23.2618 8.21725 23.2618 7.98392C23.2618 7.83058 23.2585 7.70725 23.2518 7.61392C23.2518 7.52058 23.2451 7.38058 23.2318 7.19392C23.2185 7.00058 23.1985 6.84058 23.1718 6.71392C23.1451 6.58725 23.1018 6.44392 23.0418 6.28392C22.9885 6.12392 22.9218 5.99725 22.8418 5.90392C22.7618 5.80392 22.6585 5.72058 22.5318 5.65392C22.4051 5.58058 22.2618 5.54392 22.1018 5.54392C21.9218 5.54392 21.7618 5.58392 21.6218 5.66392C21.4818 5.74392 21.3718 5.86392 21.2918 6.02392C21.2118 6.18392 21.1485 6.33725 21.1018 6.48392C21.0551 6.62392 21.0218 6.80725 21.0018 7.03392C20.9818 7.26058 20.9685 7.43058 20.9618 7.54392C20.9618 7.65058 20.9618 7.79725 20.9618 7.98392ZM19.5418 7.98392C19.5418 6.70392 19.7751 5.78392 20.2418 5.22392C20.7151 4.65725 21.3351 4.37392 22.1018 4.37392C22.4685 4.37392 22.8018 4.43725 23.1018 4.56392C23.4018 4.68392 23.6718 4.88058 23.9118 5.15392C24.1585 5.42058 24.3485 5.79392 24.4818 6.27392C24.6151 6.75392 24.6818 7.32392 24.6818 7.98392C24.6818 8.65725 24.6151 9.24058 24.4818 9.73392C24.3485 10.2206 24.1585 10.6006 23.9118 10.8739C23.6651 11.1406 23.3918 11.3372 23.0918 11.4639C22.7985 11.5839 22.4685 11.6439 22.1018 11.6439C21.3285 11.6439 20.7085 11.3606 20.2418 10.7939C19.7751 10.2272 19.5418 9.29058 19.5418 7.98392Z" fill="#828282"/>
</svg>
