<svg width="28" height="30" viewBox="0 0 28 30" fill="none" xmlns="http://www.w3.org/2000/svg">
<path d="M22.9136 6.57639C22.9605 7.18648 23.0632 7.69356 23.0228 8.18933C22.9485 9.09823 21.4152 8.59794 21.3933 8.31157C21.2983 7.01443 21.1946 5.71842 21.0733 4.42355C21.0373 4.0455 21.1225 3.89949 21.52 3.87459C22.7367 3.79762 23.95 3.6799 25.1634 3.55653C25.5325 3.51917 25.7204 3.57124 25.752 4.02513C25.8361 5.20115 25.858 5.20002 24.7211 5.3234C24.5627 5.34038 24.4054 5.35849 24.1739 5.38565C24.3869 5.64598 24.566 5.85086 24.7298 6.06705C28.0521 10.4554 28.917 15.3304 26.9829 20.5246C25.0476 25.7199 21.2546 28.8066 15.9371 29.651C8.15019 30.887 0.887528 24.9876 0.0771687 16.8935C-0.705888 9.06654 4.47736 2.12356 11.9726 0.970171C12.475 0.893203 12.9861 0.875093 13.494 0.834345C13.6021 0.82529 13.7703 0.790202 13.8118 0.845664C14.1405 1.28484 13.9068 1.80097 13.9625 2.28202C13.9985 2.58763 13.7561 2.52651 13.5879 2.5333C11.7062 2.60574 9.92599 3.07661 8.25394 3.98098C3.60256 6.4949 0.981451 11.8295 1.75796 17.2093C2.53992 22.6299 6.61793 26.9673 11.8077 27.8988C18.6827 29.1326 25.1033 24.4024 26.1594 17.2444C26.7262 13.4039 25.7335 9.96299 23.322 6.97595C23.2642 6.90351 23.2019 6.83446 23.1375 6.76768C23.1014 6.72693 23.0567 6.69637 22.9136 6.57639Z" fill="#FF3333"/>
<path d="M14.0103 6.33754C18.8135 6.36471 22.6698 10.4067 22.6327 15.3756C22.5945 20.3582 18.6923 24.3447 13.8979 24.2971C9.11215 24.2496 5.28424 20.2371 5.3028 15.2873C5.32246 10.3082 9.21262 6.31037 14.0103 6.33754ZM20.9213 14.2087C20.905 14.1351 20.8897 14.0615 20.8744 13.9879C20.2595 11.053 18.5612 9.14801 15.7883 8.28664C14.8076 7.98217 14.7825 8.0048 14.7989 9.04953C14.8054 9.47852 14.7082 9.64264 14.2572 9.63245C13.1902 9.60868 13.1781 9.63359 13.153 8.51755C13.1454 8.16553 13.0689 8.06253 12.7096 8.14516C9.85807 8.79599 8.00473 10.5561 7.17799 13.4582C6.89513 14.4509 6.91697 14.4792 7.89333 14.4554C8.33127 14.4441 8.49837 14.5539 8.48526 15.044C8.45687 16.1351 8.48199 16.1476 7.43791 16.1612C7.08079 16.1657 6.96502 16.2381 7.05239 16.6456C7.68364 19.5772 9.37535 21.4833 12.1472 22.3435C13.1279 22.648 13.153 22.6208 13.1377 21.584C13.1312 21.1573 13.2251 20.9886 13.6772 20.9988C14.7453 21.0226 14.7574 20.9977 14.7825 22.1126C14.7901 22.4635 14.8655 22.5518 15.2248 22.4884C17.9551 22.0051 20.289 19.6757 20.8416 16.846C20.9738 16.1691 20.9738 16.1725 20.313 16.1657C19.3388 16.1555 19.4644 16.2823 19.4633 15.3043C19.4633 14.3615 19.341 14.4747 20.2792 14.4633C20.4244 14.4611 20.5708 14.4622 20.716 14.4565C20.87 14.4531 20.9585 14.3852 20.9213 14.2087Z" fill="#FF3333"/>
<path d="M14.7054 15.6508C14.4411 16.3593 13.5805 16.7283 13.0039 17.2728C12.9908 17.2852 12.9766 17.2977 12.9624 17.3101C11.9685 18.1828 11.9773 18.176 11.1746 17.1324C10.9933 16.897 11.0086 16.7736 11.227 16.5925C11.7392 16.1692 12.2186 15.704 12.7396 15.2931C13.0661 15.0362 13.1655 14.7396 13.1557 14.3265C13.1306 13.2716 13.1601 12.2144 13.1415 11.1583C13.1349 10.7882 13.254 10.6829 13.61 10.6818C14.7906 10.6795 14.7906 10.6637 14.7906 11.885C14.7906 12.3378 14.7906 12.7905 14.7906 13.2433C14.7808 13.2444 14.9686 14.9467 14.7054 15.6508Z" fill="#FF3333"/>
</svg>
