<svg width="22" height="23" viewBox="0 0 22 23" fill="none" xmlns="http://www.w3.org/2000/svg">
<path fill-rule="evenodd" clip-rule="evenodd" d="M10.4374 1.60984C10.7684 1.35238 11.2319 1.35238 11.5629 1.60984L19.8129 8.02651C20.0362 8.20018 20.1668 8.46721 20.1668 8.75008V18.8334C20.1668 19.5628 19.8771 20.2622 19.3614 20.778C18.8457 21.2937 18.1462 21.5834 17.4168 21.5834H4.5835C3.85415 21.5834 3.15468 21.2937 2.63895 20.778C2.12323 20.2622 1.8335 19.5628 1.8335 18.8334V8.75008C1.8335 8.46721 1.9641 8.20018 2.18738 8.02651L10.4374 1.60984ZM3.66683 9.19841V18.8334C3.66683 19.0765 3.76341 19.3097 3.93532 19.4816C4.10722 19.6535 4.34038 19.7501 4.5835 19.7501H17.4168C17.6599 19.7501 17.8931 19.6535 18.065 19.4816C18.2369 19.3097 18.3335 19.0765 18.3335 18.8334V9.19841L11.0002 3.4947L3.66683 9.19841Z" fill="#FF3333"/>
<path fill-rule="evenodd" clip-rule="evenodd" d="M12.5415 12.3461C14.9103 11.0722 17.6768 11.1234 19.4886 11.5261L19.0114 13.6737C17.5232 13.343 15.3397 13.3392 13.5835 14.2837C11.9318 15.1719 10.45 17.0093 10.45 20.8499H8.25C8.25 16.3305 10.0682 13.6762 12.5415 12.3461Z" fill="#FF3333"/>
</svg>
