<svg width="24" height="25" viewBox="0 0 24 25" fill="none" xmlns="http://www.w3.org/2000/svg">
<path d="M12 21.761C10.7369 20.6837 9.56619 19.5026 8.5 18.23C6.9 16.319 5 13.473 5 10.761C4.99858 7.92858 6.70425 5.37443 9.32107 4.29043C11.9379 3.20644 14.9501 3.80628 16.952 5.81004C18.2685 7.12064 19.0059 8.90343 19 10.761C19 13.473 17.1 16.319 15.5 18.23C14.4338 19.5026 13.2631 20.6837 12 21.761ZM12 5.76104C9.23995 5.76434 7.00331 8.00098 7 10.761C7 11.927 7.527 13.946 10.035 16.947C10.6531 17.6851 11.309 18.3907 12 19.061C12.691 18.3915 13.3472 17.6869 13.966 16.95C16.473 13.945 17 11.926 17 10.761C16.9967 8.00098 14.7601 5.76434 12 5.76104ZM12 13.761C10.3431 13.761 9 12.4179 9 10.761C9 9.10418 10.3431 7.76104 12 7.76104C13.6569 7.76104 15 9.10418 15 10.761C15 11.5567 14.6839 12.3197 14.1213 12.8824C13.5587 13.445 12.7957 13.761 12 13.761Z" fill="#FF3333"/>
</svg>
