<svg width="10" height="12" viewBox="0 0 10 12" fill="none" xmlns="http://www.w3.org/2000/svg">
<path d="M5.08887 11.6249C4.29945 10.9515 3.56773 10.2133 2.90137 9.418C1.90137 8.22363 0.713868 6.44488 0.713868 4.74988C0.712981 2.9796 1.77902 1.38325 3.41454 0.705752C5.05005 0.0282566 6.93266 0.403154 8.18387 1.6555C9.00665 2.47463 9.46756 3.58887 9.46389 4.74988C9.46389 6.44488 8.27637 8.22363 7.27637 9.418C6.61 10.2133 5.87829 10.9515 5.08887 11.6249ZM5.08887 1.62488C3.36384 1.62695 1.96593 3.02485 1.96387 4.74988C1.96387 5.47863 2.29324 6.7405 3.86074 8.61613C4.24708 9.07741 4.657 9.51842 5.08887 9.93738C5.52077 9.51892 5.93089 9.07854 6.31762 8.618C7.88449 6.73988 8.21387 5.478 8.21387 4.74988C8.2118 3.02485 6.8139 1.62695 5.08887 1.62488ZM5.08887 6.62488C4.05333 6.62488 3.21387 5.78541 3.21387 4.74988C3.21387 3.71434 4.05333 2.87488 5.08887 2.87488C6.1244 2.87488 6.96387 3.71434 6.96387 4.74988C6.96387 5.24716 6.76632 5.72407 6.41469 6.0757C6.06306 6.42734 5.58615 6.62488 5.08887 6.62488Z" fill="white"/>
</svg>
