<svg width="20" height="21" viewBox="0 0 20 21" fill="none" xmlns="http://www.w3.org/2000/svg">
<path fill-rule="evenodd" clip-rule="evenodd" d="M4.16699 10.4252C3.70675 10.4252 3.33366 10.7983 3.33366 11.2585V17.0919C3.33366 17.5521 3.70675 17.9252 4.16699 17.9252H15.8337C16.2939 17.9252 16.667 17.5521 16.667 17.0919V11.2585C16.667 10.7983 16.2939 10.4252 15.8337 10.4252H4.16699ZM1.66699 11.2585C1.66699 9.87783 2.78628 8.75854 4.16699 8.75854H15.8337C17.2144 8.75854 18.3337 9.87783 18.3337 11.2585V17.0919C18.3337 18.4726 17.2144 19.5919 15.8337 19.5919H4.16699C2.78628 19.5919 1.66699 18.4726 1.66699 17.0919V11.2585Z" fill="#FF3333"/>
<path fill-rule="evenodd" clip-rule="evenodd" d="M10 2.92533C9.11594 2.92533 8.2681 3.27652 7.64298 3.90164C7.01786 4.52677 6.66667 5.37461 6.66667 6.25867V9.592C6.66667 10.0522 6.29357 10.4253 5.83333 10.4253C5.3731 10.4253 5 10.0522 5 9.592V6.25867C5 4.93258 5.52678 3.66082 6.46447 2.72313C7.40215 1.78545 8.67392 1.25867 10 1.25867C11.3261 1.25867 12.5979 1.78545 13.5355 2.72313C14.4732 3.66082 15 4.93258 15 6.25867V9.592C15 10.0522 14.6269 10.4253 14.1667 10.4253C13.7064 10.4253 13.3333 10.0522 13.3333 9.592V6.25867C13.3333 5.37461 12.9821 4.52677 12.357 3.90164C11.7319 3.27652 10.8841 2.92533 10 2.92533Z" fill="#FF3333"/>
</svg>
