<svg width="20" height="19" viewBox="0 0 20 19" fill="none" xmlns="http://www.w3.org/2000/svg">
<g clipPath="url(#clip0_1_5681)">
<path d="M9.80742 18.08C4.57867 18.0852 0.315727 14.054 0.308603 9.09721C0.301478 4.11946 4.55176 0.0859627 9.81058 0.0799627C15.0369 0.0739627 19.3094 4.11421 19.3086 9.06271C19.3086 14.0487 15.0662 18.0747 9.80742 18.08ZM12.7428 14.4785C12.8346 14.4965 12.9589 14.459 13.0729 14.3892C13.9073 13.8785 14.6641 13.2815 15.3322 12.5832C15.5737 12.3312 15.5381 12.1175 15.2618 11.924C14.486 11.3825 13.6682 10.907 12.795 10.517C12.5465 10.406 12.3406 10.4367 12.1633 10.6415C12.0295 10.796 11.8886 10.9445 11.7509 11.096C11.344 11.5422 11.34 11.5505 10.7574 11.3195C9.31185 10.7457 8.22336 9.80071 7.5758 8.44396C7.11269 7.47196 7.16257 7.69921 7.87266 7.09171C7.95104 7.02496 8.02861 6.95746 8.11253 6.89596C8.36902 6.70771 8.41889 6.49096 8.27323 6.20746C7.86712 5.41996 7.39372 4.67146 6.8475 3.96646C6.56488 3.60196 6.41447 3.59821 6.04399 3.90646C5.52626 4.33696 5.12649 4.86946 4.6618 5.34496C4.10924 5.91046 4.04432 6.49996 4.31427 7.19596C5.52626 10.3265 7.81171 12.512 10.9252 13.9707C11.4825 14.2317 12.0802 14.3877 12.7428 14.4785ZM15.4961 8.30296C15.4716 8.16796 15.4557 8.03146 15.4351 7.89571C15.0924 5.64496 12.9668 3.80596 10.5713 3.69196C10.4597 3.68671 10.2792 3.62821 10.2484 3.74071C10.1961 3.92746 10.1977 4.13671 10.2254 4.33096C10.2531 4.52821 10.4597 4.44796 10.584 4.46296C12.8742 4.73821 14.3989 6.16846 14.668 8.32996C14.7045 8.62096 15.5476 8.58946 15.4961 8.30296ZM13.4473 8.28121C13.2756 6.94171 12.0351 5.76571 10.6283 5.64046C10.4851 5.62771 10.2009 5.48896 10.2238 5.80396C10.2396 6.01921 10.0022 6.34396 10.5254 6.40621C11.659 6.54046 12.4713 7.31671 12.6288 8.38696C12.6731 8.68171 13.4861 8.58571 13.4473 8.28121Z" fill="#FF3333"/>
</g>
<defs>
<clipPath id="clip0_1_5681">
<rect width="19" height="18" fill="white" transform="translate(0.308594 0.0800781)"/>
</clipPath>
</defs>
</svg>
