<svg width="25" height="25" viewBox="0 0 25 25" fill="none" xmlns="http://www.w3.org/2000/svg">
<path d="M9.61812 9.26978C8.54499 10.1816 8.15173 11.8446 9.07835 13.1787C9.94546 14.4271 11.0377 15.5192 12.2859 16.3859C13.62 17.3123 15.2829 16.919 16.1947 15.8458L16.2048 15.8505C17.3694 16.39 18.6064 16.7597 19.876 16.9482V19.5879L19.8749 19.5879L19.872 19.5879C11.8975 19.5992 5.86745 13.499 5.87599 5.59148V5.58789H8.51535L8.51552 5.58906C8.70397 6.85854 9.07358 8.09443 9.61311 9.25897L9.61812 9.26978ZM19.8749 21.5879H20.876C21.4283 21.5879 21.876 21.1402 21.876 20.5879V16.0856C21.876 15.59 21.513 15.1692 21.0228 15.0964L20.1686 14.9697C19.0883 14.8093 18.0365 14.4948 17.0455 14.0357L16.2926 13.687C15.8563 13.4849 15.338 13.6219 15.0586 14.0131L14.7177 14.4903C14.419 14.9085 13.8488 15.0363 13.4266 14.7431C12.3743 14.0124 11.452 13.0903 10.721 12.0378C10.4278 11.6156 10.5555 11.0453 10.9738 10.7466L11.4507 10.406C11.8421 10.1265 11.9791 9.6081 11.7769 9.17179L11.4278 8.41822C10.9687 7.42729 10.6542 6.37564 10.4938 5.29538L10.367 4.44105C10.2942 3.95085 9.87343 3.58789 9.37785 3.58789H4.87599C4.3237 3.58789 3.87599 4.03561 3.87599 4.58789V5.58932C3.86627 14.5958 10.7862 21.6008 19.8749 21.5879Z" fill="#BDBDBD"/>
</svg>
