<svg width="21" height="21" viewBox="0 0 21 21" fill="none" xmlns="http://www.w3.org/2000/svg">
<path fill-rule="evenodd" clip-rule="evenodd" d="M10.1999 2.74674C6.05773 2.74674 2.69987 6.10461 2.69987 10.2467C2.69987 14.3889 6.05773 17.7467 10.1999 17.7467C14.342 17.7467 17.6999 14.3889 17.6999 10.2467C17.6999 6.10461 14.342 2.74674 10.1999 2.74674ZM1.0332 10.2467C1.0332 5.18413 5.13726 1.08008 10.1999 1.08008C15.2625 1.08008 19.3665 5.18413 19.3665 10.2467C19.3665 15.3094 15.2625 19.4134 10.1999 19.4134C5.13726 19.4134 1.0332 15.3094 1.0332 10.2467Z" fill="#2F80ED"/>
<path fill-rule="evenodd" clip-rule="evenodd" d="M10.2005 6.08008C10.6608 6.08008 11.0339 6.45317 11.0339 6.91341V13.5801C11.0339 14.0403 10.6608 14.4134 10.2005 14.4134C9.74028 14.4134 9.36719 14.0403 9.36719 13.5801V6.91341C9.36719 6.45317 9.74028 6.08008 10.2005 6.08008Z" fill="#2F80ED"/>
<path fill-rule="evenodd" clip-rule="evenodd" d="M6.0332 10.2469C6.0332 9.78667 6.4063 9.41357 6.86654 9.41357H13.5332C13.9934 9.41357 14.3665 9.78667 14.3665 10.2469C14.3665 10.7071 13.9934 11.0802 13.5332 11.0802H6.86654C6.4063 11.0802 6.0332 10.7071 6.0332 10.2469Z" fill="#2F80ED"/>
</svg>
