<svg width="14" height="15" viewBox="0 0 14 15" fill="none" xmlns="http://www.w3.org/2000/svg">
<path fillRule="evenodd" clipRule="evenodd" d="M10.1214 9.68331L12.4593 12.0212C12.6563 12.2182 12.6535 12.5347 12.453 12.7281C12.2526 12.9216 11.9304 12.9187 11.7334 12.7217L9.4095 10.3978C8.53892 11.1129 7.42463 11.5422 6.21008 11.5422C3.42438 11.5422 1.16612 9.28395 1.16612 6.49824C1.16612 3.71254 3.42438 1.45428 6.21008 1.45428C8.99578 1.45428 11.254 3.71254 11.254 6.49824C11.254 7.70613 10.8295 8.81485 10.1214 9.68331ZM10.0816 6.49824C10.0816 8.63644 8.34827 10.3698 6.21008 10.3698C4.07189 10.3698 2.33854 8.63644 2.33854 6.49824C2.33854 4.36005 4.07189 2.6267 6.21008 2.6267C8.34827 2.6267 10.0816 4.36005 10.0816 6.49824Z" fill="#828282"/>
</svg>
