<svg width="27" height="19" viewBox="0 0 27 19" fill="none" xmlns="http://www.w3.org/2000/svg">
<path d="M13.4439 18.0656C9.18049 18.0656 4.91705 18.0532 0.653618 18.0801C0.0955494 18.0832 -0.0539709 17.9188 0.0144714 17.4192C0.0471132 17.1824 0.026054 16.9373 0.0186833 16.6963C0.00920665 16.3654 -0.0466002 16.0303 0.494621 16.0955C0.734696 16.1244 0.670466 15.8835 0.671519 15.7459C0.678889 15.0396 0.67573 14.3332 0.67573 13.6269C0.67573 9.95656 0.674677 6.28623 0.676783 2.61591C0.676783 2.30565 0.748385 1.96127 0.225063 2.044C0.0176303 2.0771 0.0207892 1.90956 0.0207892 1.76891C0.0207892 1.32111 0.0302658 0.872269 0.0165774 0.424467C0.0102596 0.18557 0.0860727 0.0666386 0.344048 0.0935274C0.448291 0.103869 0.55464 0.0945616 0.659936 0.0945616C9.22155 0.0945616 17.7832 0.100767 26.3448 0.080083C26.9029 0.0790488 27.0524 0.241416 26.9839 0.740928C26.9513 0.977756 26.9724 1.22286 26.9797 1.46382C26.9892 1.79476 27.045 2.12984 26.5038 2.06469C26.2637 2.03573 26.3279 2.27669 26.3269 2.41424C26.3195 3.12059 26.3227 3.82694 26.3227 4.53329C26.3227 8.20361 26.3237 11.8739 26.3216 15.5443C26.3216 15.8545 26.25 16.1989 26.7733 16.1162C26.9808 16.0831 26.9766 16.2506 26.9776 16.3913C26.9776 16.7874 26.9523 17.1855 26.985 17.5795C27.0166 17.9601 26.9018 18.0842 26.4964 18.0749C25.2866 18.048 24.0757 18.0656 22.8648 18.0656C19.7248 18.0656 16.5849 18.0656 13.4439 18.0656ZM8.48448 11.2483C8.48448 9.78488 8.47501 8.32151 8.4908 6.85814C8.49396 6.51892 8.42657 6.37414 8.03592 6.38034C6.63443 6.40309 5.23189 6.39896 3.82935 6.38241C3.4924 6.37827 3.38394 6.46308 3.385 6.80849C3.39868 9.76937 3.39868 12.7302 3.385 15.6921C3.38289 16.0396 3.49661 16.1203 3.83145 16.1162C5.19819 16.0996 6.56599 16.0924 7.93273 16.1193C8.36023 16.1275 8.50344 16.0283 8.49501 15.5856C8.46658 14.1409 8.48448 12.694 8.48448 11.2483ZM18.7466 9.54288C18.7466 8.66486 18.7382 7.78683 18.7519 6.90984C18.7561 6.63165 18.6856 6.50548 18.3728 6.51168C17.5315 6.52823 16.6902 6.52926 15.8499 6.51168C15.5267 6.50444 15.4782 6.64923 15.4793 6.91605C15.4867 8.65452 15.4909 10.393 15.4761 12.1314C15.473 12.4634 15.6014 12.5348 15.9057 12.5286C16.7113 12.5131 17.5178 12.5069 18.3233 12.5306C18.6898 12.541 18.7593 12.3921 18.7529 12.0746C18.735 11.2296 18.7466 10.3857 18.7466 9.54288ZM23.605 9.53357C23.605 8.65658 23.5955 7.78063 23.6103 6.90364C23.6145 6.62338 23.5439 6.50444 23.2333 6.51168C22.3941 6.52926 21.5528 6.52926 20.7136 6.51168C20.4029 6.50548 20.3345 6.62441 20.3366 6.90364C20.3471 8.65658 20.3461 10.4095 20.3377 12.1635C20.3366 12.4221 20.4029 12.5317 20.6872 12.5275C21.5443 12.5131 22.4025 12.5131 23.2596 12.5275C23.5429 12.5317 23.6145 12.4241 23.6103 12.1635C23.5966 11.2865 23.605 10.4095 23.605 9.53357ZM13.8746 9.53047C13.8746 8.66899 13.8672 7.80648 13.8788 6.94501C13.883 6.6575 13.8293 6.50031 13.4787 6.50961C12.6542 6.53133 11.8287 6.5272 11.0042 6.51168C10.7041 6.50651 10.6062 6.612 10.6083 6.90054C10.6167 8.65865 10.6167 10.4168 10.6083 12.1749C10.6072 12.451 10.7157 12.5296 10.9821 12.5265C11.8066 12.5151 12.6321 12.51 13.4566 12.5286C13.7788 12.5358 13.8872 12.4334 13.8809 12.1159C13.863 11.2545 13.8746 10.3919 13.8746 9.53047ZM19.7101 4.00171C19.7069 3.28916 19.3015 2.87445 18.6276 2.891C17.9738 2.90651 17.6052 3.30674 17.6031 4.00482C17.6 4.73082 17.9822 5.14346 18.6561 5.14242C19.3268 5.14035 19.7143 4.72254 19.7101 4.00171ZM21.896 5.06382C21.8055 4.91697 21.7476 4.79287 21.6612 4.69048C21.4306 4.41435 21.2969 4.1889 21.618 3.83935C21.8813 3.55184 21.6612 3.08646 21.2695 2.99338C21.0347 2.93754 20.7841 2.94891 20.5409 2.92823C20.2724 2.90444 20.1639 3.01924 20.1713 3.28606C20.1839 3.76592 20.1734 4.24682 20.1755 4.72771C20.1765 4.9149 20.1439 5.13105 20.4472 5.1145C20.7336 5.09899 20.6188 4.87767 20.6567 4.72875C20.6936 4.58086 20.5335 4.34196 20.7894 4.29956C20.9989 4.26543 21.0347 4.5095 21.1337 4.63981C21.3095 4.87457 21.3927 5.2417 21.896 5.06382ZM14.9886 3.30157C15.115 3.30881 15.2529 3.4536 15.3635 3.28192C15.4098 3.21056 15.4467 3.0968 15.3666 3.04613C15.1381 2.90238 14.8812 2.86618 14.6127 2.91892C14.3537 2.96856 14.1589 3.08956 14.0831 3.35535C14.0073 3.62217 14.1104 3.83624 14.3126 3.99344C14.4758 4.11961 14.6696 4.20752 14.8507 4.31197C14.9507 4.36988 15.0002 4.45882 14.9812 4.57052C14.9549 4.72358 14.8286 4.74736 14.7033 4.74323C14.5822 4.73909 14.4611 4.71427 14.341 4.69358C14.2347 4.67497 14.102 4.5457 14.0441 4.73805C13.9925 4.90973 14.062 5.01625 14.2515 5.08244C14.6927 5.2355 15.2666 5.09899 15.4119 4.75977C15.6246 4.26543 15.2929 4.03481 14.9139 3.83831C14.8833 3.82177 14.8496 3.81142 14.8201 3.79281C14.678 3.70284 14.4706 3.63872 14.5706 3.41326C14.6517 3.23021 14.837 3.2964 14.9886 3.30157ZM10.8042 14.8452C10.7599 15.2454 11.0842 15.627 11.5002 15.6642C11.9045 15.7004 12.293 15.3695 12.3225 14.9651C12.3499 14.5856 12.0424 14.2257 11.6486 14.174C11.2464 14.1223 10.8494 14.4377 10.8042 14.8452ZM14.2737 14.1678C13.8662 14.1709 13.505 14.538 13.5155 14.9362C13.5261 15.3374 13.9041 15.6859 14.3095 15.6684C14.7001 15.6508 15.0371 15.3105 15.0413 14.9269C15.0455 14.5246 14.6812 14.1636 14.2737 14.1678ZM22.7932 5.11967C22.91 5.11967 22.9479 5.12794 22.9806 5.11864C23.1575 5.06589 23.4692 5.25515 23.4923 4.93869C23.5186 4.57672 23.1827 4.74736 23.0227 4.74633C22.7005 4.74426 22.6868 4.57465 22.7152 4.3461C22.7395 4.1496 22.8963 4.17959 23.0343 4.16098C23.1901 4.1403 23.4386 4.24371 23.4523 3.98413C23.467 3.70387 23.2101 3.8228 23.0596 3.79488C23.009 3.78557 22.9543 3.79177 22.9027 3.78971C22.7321 3.78454 22.7142 3.66457 22.7131 3.53737C22.7121 3.40292 22.7584 3.32846 22.9153 3.29226C23.1154 3.24676 23.5186 3.46497 23.4744 3.09163C23.4365 2.77207 23.0343 2.98511 22.8016 2.92926C22.7352 2.91375 22.6615 2.93444 22.592 2.9272C22.3141 2.89824 22.2267 3.02441 22.2382 3.28709C22.2551 3.68215 22.2719 4.08135 22.2351 4.4733C22.1866 4.96454 22.2919 5.25722 22.7932 5.11967ZM19.7027 15.6663C20.1176 15.6735 20.464 15.3323 20.464 14.9165C20.464 14.5225 20.1481 14.1905 19.7543 14.1678C19.3447 14.144 18.9804 14.4801 18.9678 14.8927C18.9541 15.3095 19.2868 15.6591 19.7027 15.6663ZM16.9966 14.1678C16.5838 14.1688 16.2332 14.5204 16.2395 14.9289C16.2458 15.3364 16.6102 15.6818 17.0198 15.6673C17.4125 15.6539 17.7389 15.3229 17.7463 14.931C17.7537 14.5204 17.4083 14.1678 16.9966 14.1678ZM23.188 14.9072C23.1817 14.4966 22.8216 14.1543 22.4109 14.1688C21.995 14.1833 21.6707 14.537 21.6886 14.9558C21.7054 15.3498 22.0392 15.6684 22.4341 15.6673C22.85 15.6673 23.1943 15.3198 23.188 14.9072ZM16.4986 2.92926C16.4986 2.93237 16.4986 2.93444 16.4986 2.93754C16.288 2.93754 16.0784 2.9334 15.8678 2.93961C15.772 2.94167 15.7046 2.99338 15.6952 3.09473C15.6867 3.18574 15.7078 3.2933 15.812 3.28502C16.4133 3.23952 16.249 3.66767 16.2616 3.97793C16.2732 4.2706 16.268 4.56328 16.2648 4.85595C16.2627 5.02349 16.3322 5.1145 16.5101 5.11657C16.6923 5.11864 16.7523 5.02349 16.7513 4.85699C16.7471 4.47847 16.7544 4.09893 16.7502 3.72042C16.7471 3.48462 16.7302 3.25607 17.0882 3.2995C17.2177 3.31502 17.343 3.28296 17.3378 3.11542C17.3325 2.95098 17.204 2.9334 17.0766 2.93133C16.885 2.92616 16.6923 2.92926 16.4986 2.92926Z" fill="#00A652"/>
<path d="M19.2086 4.0379C19.1844 4.42572 19.1075 4.76183 18.6274 4.73908C18.1441 4.71633 18.1093 4.35229 18.1104 3.99964C18.1114 3.63767 18.1809 3.28501 18.66 3.29122C19.1781 3.29639 19.1865 3.68835 19.2086 4.0379Z" fill="#00A652"/>
<path d="M20.6587 3.64592C20.644 3.41219 20.6682 3.26844 20.9009 3.30981C21.063 3.33876 21.2105 3.39254 21.2105 3.59007C21.2115 3.81242 21.0525 3.87344 20.8672 3.89412C20.6029 3.92204 20.6756 3.72038 20.6587 3.64592Z" fill="#00A652"/>
</svg>
