<svg width="17" height="17" viewBox="0 0 17 17" fill="none" xmlns="http://www.w3.org/2000/svg">
<g clipPath="url(#clip0_1_9582)">
<path fillRule="evenodd" clipRule="evenodd" d="M7.51552 1.24108C7.62129 1.0031 7.85729 0.849731 8.11771 0.849731C8.81681 0.849731 9.48728 1.12745 9.98161 1.62178C10.476 2.11612 10.7537 2.78659 10.7537 3.48568V5.46265H13.8212C14.1064 5.46001 14.3888 5.5191 14.649 5.63589C14.9104 5.75324 15.1433 5.92603 15.3313 6.14229C15.5194 6.35855 15.6581 6.61311 15.738 6.88833C15.8179 7.16355 15.8371 7.45286 15.7941 7.7362L14.8847 13.667C14.8846 13.6672 14.8847 13.6668 14.8847 13.667C14.8131 14.1382 14.5736 14.5682 14.2104 14.8769C13.8482 15.1848 13.3871 15.3519 12.9117 15.3475H3.5048C2.98047 15.3475 2.47762 15.1392 2.10687 14.7684C1.73612 14.3977 1.52783 13.8948 1.52783 13.3705V8.75759C1.52783 8.23326 1.73612 7.73042 2.10687 7.35966C2.47762 6.98891 2.98047 6.78062 3.5048 6.78062H5.0535L7.51552 1.24108ZM4.82277 8.0986H3.5048C3.33002 8.0986 3.16241 8.16803 3.03882 8.29161C2.91524 8.4152 2.84581 8.58281 2.84581 8.75759V13.3705C2.84581 13.5453 2.91524 13.7129 3.03882 13.8365C3.16241 13.9601 3.33002 14.0295 3.5048 14.0295H4.82277V8.0986ZM6.14075 14.0295H12.9226C13.0815 14.0313 13.2357 13.9756 13.3568 13.8727C13.4779 13.7698 13.5578 13.6265 13.5816 13.4694L14.491 7.53842C14.491 7.53833 14.491 7.53851 14.491 7.53842C14.5053 7.44405 14.4989 7.34745 14.4723 7.2558C14.4457 7.16405 14.3994 7.0792 14.3368 7.00711C14.2741 6.93503 14.1965 6.87743 14.1093 6.83831C14.0222 6.7992 13.9275 6.7795 13.832 6.78058L13.8246 6.78067L10.0947 6.78062C9.73073 6.78062 9.43569 6.48558 9.43569 6.12164V3.48568C9.43569 3.13613 9.29683 2.8009 9.04966 2.55373C8.89952 2.40359 8.71687 2.29341 8.51827 2.23005L6.14075 7.57946V14.0295Z" fill="#828282"/>
</g>
<defs>
<clipPath id="clip0_1_9582">
<rect width="15.8157" height="15.8157" fill="white" transform="translate(0.869141 0.190796)"/>
</clipPath>
</defs>
</svg>
