<svg width="24" height="25" viewBox="0 0 24 25" fill="none" xmlns="http://www.w3.org/2000/svg">
<path d="M12 14.998C14.2091 14.998 16 13.2072 16 10.998C16 8.78891 14.2091 6.99805 12 6.99805C9.79086 6.99805 8 8.78891 8 10.998C8 13.2072 9.79086 14.998 12 14.998ZM12 8.99805C13.1046 8.99805 14 9.89348 14 10.998C14 12.1026 13.1046 12.998 12 12.998C10.8954 12.998 10 12.1026 10 10.998C10 9.89348 10.8954 8.99805 12 8.99805Z" fill="#FF3333"/>
<path d="M4 22.998C2.89543 22.998 2 22.1026 2 20.998V4.99805C2 3.89348 2.89543 2.99805 4 2.99805H20C21.1046 2.99805 22 3.89348 22 4.99805V20.998C22 22.1026 21.1046 22.998 20 22.998H4ZM4 4.99805V20.998H7C7 18.2366 9.23858 15.998 12 15.998C14.7614 15.998 17 18.2366 17 20.998H20V4.99805H4ZM15 20.998C15 19.3412 13.6569 17.998 12 17.998C10.3431 17.998 9 19.3412 9 20.998H15Z" fill="#FF3333"/>
</svg>
